<?xml version="1.0" encoding="UTF-8" standalone="no"?>
<!-- Created with Inkscape (http://www.inkscape.org/) -->

<svg
   width="80"
   height="80"
   viewBox="0 0 21.166666 21.166667"
   version="1.1"
   id="svg5"
   inkscape:version="1.2.1 (9c6d41e410, 2022-07-14)"
   sodipodi:docname="ruins.svg"
   xmlns:inkscape="http://www.inkscape.org/namespaces/inkscape"
   xmlns:sodipodi="http://sodipodi.sourceforge.net/DTD/sodipodi-0.dtd"
   xmlns="http://www.w3.org/2000/svg"
   xmlns:svg="http://www.w3.org/2000/svg">
  <sodipodi:namedview
     id="namedview7"
     pagecolor="#ffffff"
     bordercolor="#000000"
     borderopacity="0.25"
     inkscape:showpageshadow="2"
     inkscape:pageopacity="0.0"
     inkscape:pagecheckerboard="0"
     inkscape:deskcolor="#d1d1d1"
     inkscape:document-units="mm"
     showgrid="false"
     inkscape:zoom="8.3956828"
     inkscape:cx="55.385609"
     inkscape:cy="48.894177"
     inkscape:window-width="1920"
     inkscape:window-height="991"
     inkscape:window-x="3831"
     inkscape:window-y="1058"
     inkscape:window-maximized="1"
     inkscape:current-layer="layer2" />
  <defs
     id="defs2" />
  <g
     inkscape:label="HILLS"
     inkscape:groupmode="layer"
     id="layer1">
    <rect
       style="fill:#d7eef4;stroke:none;stroke-width:1"
       id="rect3130"
       width="22.81629"
       height="11.534202"
       x="-0.81936949"
       y="-1.6072248" />
    <rect
       style="fill:#aade87;stroke:none;stroke-width:1"
       id="rect3444"
       width="23.320518"
       height="12.574171"
       x="-1.2605685"
       y="9.6433487" />
    <path
       style="fill:#5aa02c;stroke:none;stroke-width:1"
       d="M 4.601075,9.1076075 C 8.3197522,4.285933 16.860104,7.4688683 16.860104,7.4688683 l 3.59262,1.6702532 -2.39508,1.9223665 c 0,0 -3.81322,0.81937 -7.657954,0.598771 C 6.5549562,11.439659 4.601075,9.1076075 4.601075,9.1076075 Z"
       id="path3829" />
    <path
       style="fill:#71c837;stroke:none;stroke-width:1"
       d="M -1.3866254,5.8931576 C 6.5864705,4.758646 13.362026,10.368176 13.362026,10.368176 c 0,0 1.355111,1.102997 -1.607225,1.670253 C 8.7924652,12.605685 0.72482688,13.803225 -1.0084548,13.582625 -2.7417366,13.362026 -1.3866254,5.8931576 -1.3866254,5.8931576 Z"
       id="path3717" />
    <path
       style="fill:#8dd35f;stroke:none;stroke-width:1"
       d="M 5.8600571,21.272093 C -0.41127087,8.6348942 -7.8486249,8.887008 -7.8486249,8.887008 l -0.031514,13.866253 13.708682,-0.126057 z"
       id="path2968" />
    <path
       style="fill:#8dd35f;stroke:none;stroke-width:1"
       d="M 12.605685,11.660259 C 21.681778,3.7501913 25.242884,6.0507288 25.242884,6.0507288 l 0.09454,6.1137572 c 0,0 -2.111453,2.300538 -7.342812,1.512683 -5.231359,-0.787856 -5.38893,-2.01691 -5.38893,-2.01691 z"
       id="path3553" />
    <path
       style="fill:#447821;stroke:none;stroke-width:1"
       d="M 8.5718657,20.263639 13.235969,18.656414 6.523442,12.983855 4.0653334,14.433509 7.8785531,20.074553 Z"
       id="path4279" />
  </g>
  <g
     inkscape:groupmode="layer"
     id="layer2"
     inkscape:label="RUINS">
    <path
       style="fill:#447821;stroke:none;stroke-width:1"
       d="m 17.175246,16.481933 -7.122212,-4.79016 -1.4811683,0.693313 5.7671013,5.893157 z"
       id="path4500" />
    <path
       style="fill:#447821;stroke:none;stroke-width:1"
       d="m 14.181396,19.318212 4.884703,-1.953881 0.15757,-0.567256 -0.126061,-0.59877 -0.787855,0.472712 -1.134511,-0.252112 -4.002305,1.544196"
       id="path4497"
       sodipodi:nodetypes="ccccccc" />
    <path
       style="fill:#c4c8b7;stroke:none;stroke-width:1"
       d="m 11.723287,17.710987 -1.512682,-1.166025 -4.3174474,-3.403535 -0.031514,-2.458109 0.126057,-0.409685 0.5987701,-0.252113 0.031514,-0.3781709 0.5042273,0.063028 7.122212,3.9392769 0.724827,0.472713 -0.157571,4.03382 -1.008455,0.37817 z"
       id="path4272" />
    <path
       style="fill:#a7ac93;stroke:none;stroke-width:1"
       d="m 2.0169096,14.465024 5.6725582,6.082243 0.031514,-2.458109 -5.5465014,-5.514987 z"
       id="path4051" />
    <path
       style="fill:#a7ac93;stroke:none;stroke-width:1"
       d="m 2.2375091,12.637199 1.2920828,-2.521137 5.0107598,2.99385 -1.3866254,1.985396 0.2205995,2.647194 0.3466563,-2.300538 1.1660259,-2.237509 -1.1660259,4.916217 z"
       id="path4111" />
    <path
       style="fill:#a7ac93;stroke:none;stroke-width:1"
       d="m 11.628744,18.940042 0.504228,0.567255 0.945426,0.157572 1.071483,-0.409685 0.126057,-0.693313 -0.693313,-0.472713 -0.693312,-0.06303 -0.882398,0.346657 z"
       id="path4113" />
    <path
       style="fill:#a7ac93;stroke:none;stroke-width:1"
       d="m 14.21291,18.530357 0.126057,-4.821674 -0.693313,0.441198 -0.315142,0.409685 -0.81937,0.157571 -0.37817,0.81937 -0.283628,0.157571 -0.157571,3.245964 z"
       id="path4115" />
    <path
       style="fill:#8a916f;stroke:none;stroke-width:1"
       d="M 11.439659,15.820135 11.250574,15.41045 10.305147,15.31591 9.6748633,14.528055 8.9500362,14.433515 8.0361241,13.960802 l -5.0107598,2.61568 -0.315142,0.661798 0.4096848,0.283628 0.5987701,1.355111 0.2205992,0.630284 3.4665634,-1.859338 0.3466566,-2.142967 0.630284,-1.260568 1.0084549,0.283628 -0.7563409,2.741737 z"
       id="path4117"
       sodipodi:nodetypes="ccccccccccccccccc" />
    <path
       style="fill:#c4c8b7;stroke:none;stroke-width:1"
       d="m 7.6894678,18.057644 1.1975402,-4.947732 0.7248268,0.2206 -0.9454263,4.285933 z"
       id="path4053" />
    <path
       style="fill:#c4c8b7;stroke:none;stroke-width:1.10195"
       d="m 7.6759615,18.041886 0.8643902,-0.26787 c 0,0 -0.036016,2.310385 -0.036016,2.44432 0,0.133936 -0.9724387,0.234388 -0.9724387,0.234388 z"
       id="path4055" />
  </g>
</svg>
